<?xml version="1.0"?>
<svg xmlns="http://www.w3.org/2000/svg" xmlns:xlink="http://www.w3.org/1999/xlink" xmlns:svgjs="http://svgjs.com/svgjs" version="1.1" width="512" height="512" x="0" y="0" viewBox="0 0 64 64" style="enable-background:new 0 0 512 512" xml:space="preserve" class=""><g><g xmlns="http://www.w3.org/2000/svg"><path d="m46.2 36.4c-1.203-.903-2.695-1.4-4.2-1.4h-4.583c-.772 0-1.545-.183-2.236-.528l-2.391-1.195c-.363-.181-.768-.277-1.172-.277-.214 0-.419.033-.618.082v-13.082c0-2.757-2.243-5-5-5h-9v-4.184c.847-.302 1.514-.969 1.816-1.816h13.184v-2h-13.184c-.414-1.161-1.514-2-2.816-2-1.654 0-3 1.346-3 3 0 1.302.839 2.402 2 2.816v4.184h-9c-2.757 0-5 2.243-5 5v38c0 2.757 2.243 5 5 5h20c2.486 0 4.538-1.829 4.92-4.209.336.13.698.209 1.08.209h10c1.505 0 2.997-.497 4.2-1.4l2.042-1.532 10.758 2.152v-22.44l-10.757 2.152zm-30.2-29.4c.551 0 1 .448 1 1s-.449 1-1 1-1-.448-1-1 .449-1 1-1zm4 40h3v2h-16v-10h16v2h-3c-1.654 0-3 1.346-3 3s1.346 3 3 3zm-15-10v14h20v-4h2.184c-.112.314-.184.648-.184 1 0 1.065.562 1.997 1.401 2.529-.248.437-.401.934-.401 1.471 0 .352.072.686.184 1h-25.184v-28h26v10.618c0 2.123.906 4.034 2.346 5.382h-6.346v-4zm6-20h10v1c0 .552-.449 1-1 1h-8c-.551 0-1-.448-1-1zm-5 0h3v1c0 1.654 1.346 3 3 3h8c1.654 0 3-1.346 3-3v-1h3c1.654 0 3 1.346 3 3v3h-26v-3c0-1.654 1.346-3 3-3zm23 41c0 1.654-1.346 3-3 3h-20c-1.654 0-3-1.346-3-3v-3h26.184c-.112.314-.184.648-.184 1zm16-2c-.859.645-1.925 1-3 1h-10c-.551 0-1-.448-1-1s.449-1 1-1h2v-2h-2-1c-.551 0-1-.448-1-1s.449-1 1-1h3v-2h-3-1c-.551 0-1-.448-1-1s.449-1 1-1h4v-2h-4-10c-.551 0-1-.448-1-1s.449-1 1-1h16.382 1.576 2.042v-2h-2.042-1.576c-2.968 0-5.382-2.414-5.382-5.382 0-.436.503-.75.895-.553l2.391 1.195c.966.484 2.049.74 3.131.74h4.583c1.075 0 2.141.355 3 1l2 1.5v15zm4-16.181 8-1.6v17.561l-8-1.6z" fill="#5cad2f" data-original="#000000" style="" class=""/><path d="m25 57h2v2h-2z" fill="#5cad2f" data-original="#000000" style="" class=""/><path d="m5 57h2v2h-2z" fill="#5cad2f" data-original="#000000" style="" class=""/><path d="m13 57h6v2h-6z" fill="#5cad2f" data-original="#000000" style="" class=""/><path d="m5 35h10v-8h-10zm2-6h6v4h-6z" fill="#5cad2f" data-original="#000000" style="" class=""/><path d="m27 27h-10v8h10zm-2 6h-6v-4h6z" fill="#5cad2f" data-original="#000000" style="" class=""/><path d="m48 31c8.271 0 15-6.729 15-15s-6.729-15-15-15-15 6.729-15 15 6.729 15 15 15zm0-28c1.4 0 2.891 1.882 3.878 5h-7.756c.987-3.118 2.478-5 3.878-5zm4.401 7c.316 1.489.522 3.169.578 5h-9.957c.056-1.831.262-3.511.578-5zm8.548 5h-5.971c-.05-1.782-.226-3.466-.521-5h5.064c.793 1.517 1.291 3.208 1.428 5zm-12.949 14c-1.4 0-2.891-1.882-3.878-5h7.756c-.987 3.118-2.478 5-3.878 5zm-4.401-7c-.316-1.489-.522-3.169-.578-5h9.957c-.056 1.831-.262 3.511-.578 5zm11.379-5h5.971c-.137 1.792-.635 3.483-1.428 5h-5.064c.295-1.534.471-3.218.521-5zm-13.956-2h-5.971c.137-1.792.635-3.483 1.428-5h5.064c-.295 1.534-.471 3.218-.521 5zm0 2c.05 1.782.226 3.466.521 5h-5.064c-.793-1.517-1.291-3.208-1.428-5zm-3.248 7h4.248c.487 1.721 1.131 3.193 1.899 4.335-2.455-.814-4.583-2.341-6.147-4.335zm14.304 4.335c.768-1.142 1.411-2.614 1.899-4.335h4.248c-1.563 1.994-3.691 3.521-6.147 4.335zm6.148-20.335h-4.248c-.487-1.721-1.131-3.193-1.899-4.335 2.455.814 4.583 2.341 6.147 4.335zm-14.304-4.335c-.769 1.142-1.412 2.614-1.899 4.335h-4.248c1.563-1.994 3.691-3.521 6.147-4.335z" fill="#5cad2f" data-original="#000000" style="" class=""/></g></g></svg>
